<svg xmlns="http://www.w3.org/2000/svg" version="1.0" viewBox="0 0 2816 389"><path fill="#4080BF" fill-opacity=".8" d="M475.3 65.7c3.7.2 9.7.2 13.5 0 3.7-.2.6-.3-6.8-.3s-10.5.1-6.7.3m1563.5 0c.7.3 1.6.2 1.9-.1.4-.3-.2-.6-1.3-.5-1.1 0-1.4.3-.6.6m18.5 0c.9.2 2.5.2 3.5 0 .9-.3.1-.5-1.8-.5s-2.7.2-1.7.5m273.4 0c1.8.2 5 .2 7 0 2.1-.2.7-.4-3.2-.4-3.8 0-5.5.2-3.8.4m-610.9 95c.7.3 1.6.2 1.9-.1.4-.3-.2-.6-1.3-.5-1.1 0-1.4.3-.6.6m-417.5 1c8.2.2 21.2.2 29 0 7.8-.1 1.2-.3-14.8-.3-15.9 0-22.3.2-14.2.3"/><path fill="#4080BF" fill-opacity=".7" d="M502.3 65.7c4.2.2 11.2.2 15.5 0 4.2-.1.7-.3-7.8-.3s-12 .2-7.7.3m1561 0c.9.2 2.5.2 3.5 0 .9-.3.1-.5-1.8-.5s-2.7.2-1.7.5m255.5 0c1.7.2 4.7.2 6.5 0 1.7-.2.3-.4-3.3-.4s-5 .2-3.2.4m-602 95c.7.3 1.6.2 1.9-.1.4-.3-.2-.6-1.3-.5-1.1 0-1.4.3-.6.6m-611 1c.7.3 1.6.2 1.9-.1.4-.3-.2-.6-1.3-.5-1.1 0-1.4.3-.6.6m141 0c7.9.2 20.5.2 28 0 7.5-.1 1.1-.3-14.3-.3s-21.6.2-13.7.3"/><path fill="#4080BF" fill-opacity=".6" d="M532.8 65.7c4.6.2 11.8.2 16 0 4.2-.1.5-.3-8.3-.3s-12.3.2-7.7.3m1536.5 0c.9.2 2.5.2 3.5 0 .9-.3.1-.5-1.8-.5s-2.7.2-1.7.5m237.5 0c1.7.2 4.7.2 6.5 0 1.7-.2.3-.4-3.3-.4s-5 .2-3.2.4m-594 95c.6.2 1.8.2 2.5 0 .6-.3.1-.5-1.3-.5s-1.9.2-1.2.5m-604 1c.6.2 1.8.2 2.5 0 .6-.3.1-.5-1.3-.5s-1.9.2-1.2.5m82 0c7.8.2 20.6.2 28.5 0 7.8-.1 1.4-.3-14.3-.3s-22.1.2-14.2.3"/><path fill="#4080BF" fill-opacity=".5" d="M563.8 65.7c4.6.2 11.8.2 16 0 4.2-.1.5-.3-8.3-.3s-12.3.2-7.7.3m1511.5 0c.9.2 2.5.2 3.5 0 .9-.3.1-.5-1.8-.5s-2.7.2-1.7.5m219.5 0c1.7.2 4.7.2 6.5 0 1.7-.2.3-.4-3.3-.4s-5 .2-3.2.4m-607.5 95c4.8.2 12.5.2 17 0 4.5-.1.6-.3-8.8-.3-9.3 0-13 .2-8.2.3m-574.5 1c.6.2 1.8.2 2.5 0 .6-.3.1-.5-1.3-.5s-1.9.2-1.2.5m23 0c7.9.2 20.5.2 28 0 7.5-.1 1.1-.3-14.3-.3s-21.6.2-13.7.3"/><path fill="#4080BF" fill-opacity=".4" d="M594.3 65.7c4.2.2 11.2.2 15.5 0 4.2-.1.7-.3-7.8-.3s-12 .2-7.7.3m1435.5 0c.7.3 1.6.2 1.9-.1.4-.3-.2-.6-1.3-.5-1.1 0-1.4.3-.6.6m51.5 0c.9.2 2.5.2 3.5 0 .9-.3.1-.5-1.8-.5s-2.7.2-1.7.5m201.5 0c1.7.2 4.7.2 6.5 0 1.7-.2.3-.4-3.3-.4s-5 .2-3.2.4m62.4 2.3c0 1.9.2 2.7.5 1.7.2-.9.2-2.5 0-3.5-.3-.9-.5-.1-.5 1.8m-707.4 92.7c7.9.2 20.5.2 28 0 7.5-.1 1.1-.3-14.3-.3s-21.6.2-13.7.3m-520.5 1c.9.2 2.5.2 3.5 0 .9-.3.1-.5-1.8-.5s-2.7.2-1.7.5"/><path fill="#4080BF" fill-opacity=".3" d="M624.3 65.7c4.2.2 11.2.2 15.5 0 4.2-.1.7-.3-7.8-.3s-12 .2-7.7.3m1463 0c.9.2 2.5.2 3.5 0 .9-.3.1-.5-1.8-.5s-2.7.2-1.7.5m183.5 0c1.7.2 4.7.2 6.5 0 1.7-.2.3-.4-3.3-.4s-5 .2-3.2.4m-688 95c7.9.2 20.5.2 28 0 7.5-.1 1.1-.3-14.3-.3s-21.6.2-13.7.3"/><path fill="#4080BF" fill-opacity=".2" d="M654.8 65.7c4.5.2 11.9.2 16.5 0 4.5-.1.8-.3-8.3-.3s-12.8.2-8.2.3m1439.5 0c1.5.2 3.7.2 5 0 1.2-.2 0-.4-2.8-.4-2.7 0-3.8.2-2.2.4m164.5 0c1.7.2 4.7.2 6.5 0 1.7-.2.3-.4-3.3-.4s-5 .2-3.2.4m-732 95c7.8.2 20.6.2 28.5 0 7.8-.1 1.4-.3-14.3-.3s-22.1.2-14.2.3"/><path fill="#4080BF" fill-opacity=".1" d="M686.3 65.7c4.2.2 11.2.2 15.5 0 4.2-.1.7-.3-7.8-.3s-12 .2-7.7.3m1418.5 0c2.3.2 5.9.2 8 0 2-.2.1-.4-4.3-.4s-6.1.2-3.7.4m142 0c1.7.2 4.7.2 6.5 0 1.7-.2.3-.4-3.3-.4s-5 .2-3.2.4m-775 95c7.9.2 20.5.2 28 0 7.5-.1 1.1-.3-14.3-.3s-21.6.2-13.7.3"/><path fill="#4080BF" fill-opacity=".9" d="M2044.8 65.7c2.3.2 5.9.2 8 0 2-.2.1-.4-4.3-.4s-6.1.2-3.7.4m297.4-.1c.9.3 1.9 1.6 2.1 3 .4 2.1.4 2.1.3-.3-.1-2-.7-2.8-2.1-3q-2.1-.15-.3.3M748.3 66.7c4.2.2 11.2.2 15.5 0 4.2-.1.7-.3-7.8-.3s-12 .2-7.7.3m27 0c1.5.2 3.9.2 5.5 0 1.5-.2.2-.4-2.8-.4s-4.3.2-2.7.4m1371.9 0c9.2.2 24.5.2 34 0 9.5-.1 2-.3-16.7-.3s-26.5.2-17.3.3m-788.9 95c7.5.2 19.9.2 27.5 0 7.5-.1 1.3-.3-13.8-.3s-21.3.2-13.7.3"/><path fill="#4080BF" d="M469 68.3v2.4l87.8.6c48.2.4 119.8.7 159 .7 43.5 0 75.1.4 81 1.1 29.6 3.2 63.4 13.3 117.8 35.2 17 6.9 41.5 16.8 54.5 22 48.8 19.7 86.9 31.1 118.4 35.2 10.7 1.4 43.2 1.5 296.5 1.5 278.1-.1 344.8-.7 358-3 32.3-5.6 59.3-14.9 118.5-41 74.2-32.7 103.8-42.4 151-49.7 9.9-1.5 22.1-1.6 123.5-1.4 61.9.2 134.2 0 160.8-.4l48.2-.8v-4.6h-157.7c-170.2.1-169 0-195.3 5.4-36.4 7.4-65 17.5-128.5 45.5-60.2 26.5-84.2 34.9-117.8 41.1-11.1 2.1-13.7 2.1-245.7 3-129 .5-273 .8-320 .6-75.8-.3-86.7-.5-96-2.1-35.1-5.8-68.2-16-121-37.3-15.7-6.3-40-16.1-54-21.8-40.3-16.2-63.2-23.7-91.3-29.7-13.7-2.9-15.5-3-50.2-3.8-19.8-.5-94.8-.9-166.7-.9L469 66z"/><path fill="#80BFBF" d="M491.8 71.7c12.7.2 33.7.2 46.5 0 12.7-.1 2.3-.2-23.3-.2s-36 .1-23.2.2m1552.5 0c5.9.2 15.4.2 21 0 5.6-.1.8-.3-10.8-.3-11.5 0-16.1.2-10.2.3m268 0c5.9.2 15.5.2 21.5 0 5.9-.1 1-.3-10.8-.3s-16.7.2-10.7.3m-1577.5 1c10 .2 26.4.2 36.5 0 10-.1 1.8-.2-18.3-.2s-28.3.1-18.2.2m1286.5 0c.9.2 2.5.2 3.5 0 .9-.3.1-.5-1.8-.5s-2.7.2-1.7.5m128 0c16.9.2 44.5.2 61.5 0 16.9-.1 3-.2-30.8-.2s-47.7.1-30.7.2m-1353 1c.9.2 2.3.2 3 0 .6-.3-.1-.5-1.8-.5-1.6 0-2.2.2-1.2.5m1215.5 0c.6.2 1.8.2 2.5 0 .6-.3.1-.5-1.3-.5s-1.9.2-1.2.5m-1207 1c.7.3 1.6.2 1.9-.1.4-.3-.2-.6-1.3-.5-1.1 0-1.4.3-.6.6m1200 0c.7.3 1.6.2 1.9-.1.4-.3-.2-.6-1.3-.5-1.1 0-1.4.3-.6.6m-1189 2c.7.3 1.6.2 1.9-.1.4-.3-.2-.6-1.3-.5-1.1 0-1.4.3-.6.6m1178 0c.7.3 1.6.2 1.9-.1.4-.3-.2-.6-1.3-.5-1.1 0-1.4.3-.6.6m-5 1c.7.3 1.6.2 1.9-.1.4-.3-.2-.6-1.3-.5-1.1 0-1.4.3-.6.6m-1159 2c.7.3 1.6.2 1.9-.1.4-.3-.2-.6-1.3-.5-1.1 0-1.4.3-.6.6M1874 117c-.8.5-1 1-.5 1 .6 0 1.7-.5 2.5-1s1.1-1 .5-1c-.5 0-1.7.5-2.5 1m-110.2 42.7c.7.3 1.6.2 1.9-.1.4-.3-.2-.6-1.3-.5-1.1 0-1.4.3-.6.6m-701 2c.7.3 1.6.2 1.9-.1.4-.3-.2-.6-1.3-.5-1.1 0-1.4.3-.6.6m9 2c.7.3 1.6.2 1.9-.1.4-.3-.2-.6-1.3-.5-1.1 0-1.4.3-.6.6m674 0c.7.3 1.6.2 1.9-.1.4-.3-.2-.6-1.3-.5-1.1 0-1.4.3-.6.6m-668 1c.7.3 1.6.2 1.9-.1.4-.3-.2-.6-1.3-.5-1.1 0-1.4.3-.6.6m661 0c.6.2 1.8.2 2.5 0 .6-.3.1-.5-1.3-.5s-1.9.2-1.2.5m-655 1c.6.2 1.8.2 2.5 0 .6-.3.1-.5-1.3-.5s-1.9.2-1.2.5m647.5 0c.9.2 2.3.2 3 0 .6-.3-.1-.5-1.8-.5-1.6 0-2.2.2-1.2.5m-639.5 1c.6.2 1.8.2 2.5 0 .6-.3.1-.5-1.3-.5s-1.9.2-1.2.5m623 0c1.7.2 4.7.2 6.5 0 1.7-.2.3-.4-3.3-.4s-5 .2-3.2.4m-610 1c1.8.2 4.5.2 6 0s0-.4-3.3-.4-4.5.2-2.7.4m133.9 0c37.5.2 99.1.2 137 0 37.8-.1 7.2-.2-68.2-.2-75.3 0-106.3.1-68.8.2"/><path fill="#40BFBF" d="M567.3 71.7c3.7.2 9.6.2 13 0s.4-.3-6.8-.3c-7.1 0-9.9.1-6.2.3m1508.5 0c.6.2 1.8.2 2.5 0 .6-.3.1-.5-1.3-.5s-1.9.2-1.2.5m219.5 0c1.5.2 3.7.2 5 0 1.2-.2 0-.4-2.8-.4-2.7 0-3.8.2-2.2.4m-607.5 95c4.5.2 11.9.2 16.5 0 4.5-.1.8-.3-8.3-.3s-12.8.2-8.2.3m-574 1c.7.3 1.6.2 1.9-.1.4-.3-.2-.6-1.3-.5-1.1 0-1.4.3-.6.6m21 0c6.7.2 17.7.2 24.5 0 6.7-.1 1.2-.3-12.3-.3s-19 .2-12.2.3"/><path fill="#80BFBF" fill-opacity=".9" d="M2345.3 220c0 2.5.2 3.5.4 2.2.2-1.2.2-3.2 0-4.5-.2-1.2-.4-.2-.4 2.3m-.1 8c0 1.9.2 2.7.5 1.7.2-.9.2-2.5 0-3.5-.3-.9-.5-.1-.5 1.8M469.5 278c0 22.3.1 31.4.2 20.3.2-11.2.2-29.4 0-40.5-.1-11.2-.2-2.1-.2 20.2"/><path fill="#BFBFBF" d="M469 95.8c0 15.5.4 24.2 1 24.2.7 0 1 34.7 1 102.2v102.1l23.3-.6c12.7-.4 434.5-.7 937.2-.7h914l-.2-121.2c-.2-66.7-.5-123.1-.8-125.4l-.6-4.1-162.7.2c-118.5.2-164.7.5-170.2 1.4-46.3 7.2-75 16.7-148.6 48.9-53.4 23.5-74.4 31.3-99.4 37.3-27.3 6.5-10.2 6-232.5 7-111.6.5-255.9.8-320.5.6-103.7-.3-118.6-.6-127-2-23.2-4.1-46.1-10.1-71.9-18.9-15.8-5.4-31.5-11.6-104.6-41.1-43.7-17.7-78.7-28.1-106-31.7-5.1-.7-66.1-1.3-169.7-1.7L469 71.7z"/><path fill="#BFBFBF" fill-opacity=".9" d="M2344.2 74c0 1.4.2 1.9.5 1.2.2-.6.2-1.8 0-2.5-.3-.6-.5-.1-.5 1.3M469.1 173.7c.1 29.6.5 74.3.8 99.3.6 38.6.7 30.4.9-53.8.1-65.6-.1-99.2-.8-99.2s-1 18.5-.9 53.7m1876 58.9c0 1.1.3 1.4.6.6.3-.7.2-1.6-.1-1.9-.3-.4-.6.2-.5 1.3m.4 40.9c0 19.8.1 28 .2 18.3.2-9.7.2-25.9 0-36-.1-10.1-.2-2.1-.2 17.7m-.3 46c0 1.6.2 2.2.5 1.2.2-.9.2-2.3 0-3-.3-.6-.5.1-.5 1.8m-1659.4 4.2c101.3.2 267.1.2 368.5 0 101.3-.1 18.4-.2-184.3-.2s-285.6.1-184.2.2"/><path fill="#BFBFBF" fill-opacity=".4" d="M2345.2 74c0 1.4.2 1.9.5 1.2.2-.6.2-1.8 0-2.5-.3-.6-.5-.1-.5 1.3"/><path fill="#BFBFBF" fill-opacity=".5" d="M2345.4 94c0 10.2.2 14.3.3 9.2.2-5 .2-13.4 0-18.5-.1-5-.3-.9-.3 9.3"/><path fill="#BFBFBF" fill-opacity=".6" d="M2345.4 124c0 6.9.1 9.7.3 6.2.2-3.4.2-9 0-12.5-.2-3.4-.3-.6-.3 6.3"/><path fill="#80BFBF" fill-opacity=".6" d="M2345.1 137.6c0 1.1.3 1.4.6.6.3-.7.2-1.6-.1-1.9-.3-.4-.6.2-.5 1.3"/><path fill="#80BFBF" fill-opacity=".7" d="M2345.1 141.6c0 1.1.3 1.4.6.6.3-.7.2-1.6-.1-1.9-.3-.4-.6.2-.5 1.3m.3 16.4c0 8 .2 11.2.3 7.2.2-3.9.2-10.5 0-14.5-.1-3.9-.3-.7-.3 7.3"/><path fill="#BFBFBF" fill-opacity=".7" d="M469.2 321c0 1.9.2 2.7.5 1.7.2-.9.2-2.5 0-3.5-.3-.9-.5-.1-.5 1.8m1642.5 2.7c43.1.2 113.5.2 156.5 0 43.1-.1 7.9-.2-78.2-.2s-121.3.1-78.3.2"/><path fill="#80BFBF" fill-opacity=".8" d="M2345.4 194c0 12.4.2 17.4.3 11.2.2-6.1.2-16.3 0-22.5-.1-6.1-.3-1.1-.3 11.3"/><path fill="#BFBFBF" fill-opacity=".8" d="M470.2 321c0 1.9.2 2.7.5 1.7.2-.9.2-2.5 0-3.5-.3-.9-.5-.1-.5 1.8m966.6 2.7c109.5.2 288.9.2 398.5 0 109.5-.1 19.9-.2-199.3-.2s-308.8.1-199.2.2"/></svg>