<svg xmlns="http://www.w3.org/2000/svg" version="1.0" viewBox="0 0 383 303"><path fill="#BFBFBF" fill-opacity=".4" d="M87.5 52.2c-.3.7-.4 45.8-.3 100.3l.3 99h122l-60.7-.2L88 251V52l61.3-.3 61.2-.2-61.3-.3c-48.3-.1-61.4.1-61.7 1m129.8 199.5c.9.2 2.5.2 3.5 0 .9-.3.1-.5-1.8-.5s-2.7.2-1.7.5"/><path fill="#80BFBF" fill-opacity=".4" d="M211.8 51.7c1.2.2 3 .2 4 0 .9-.3-.1-.5-2.3-.4-2.2 0-3 .2-1.7.4m-.5 200c.9.2 2.5.2 3.5 0 .9-.3.1-.5-1.8-.5s-2.7.2-1.7.5"/><path fill="#BFBFBF" fill-opacity=".9" d="M121.3 52.7c18.5.2 48.9.2 67.5 0 18.5-.1 3.3-.2-33.8-.2s-52.3.1-33.7.2M288 81.5c1.3 1.4 2.6 2.5 2.8 2.5.3 0-.5-1.1-1.8-2.5s-2.6-2.5-2.8-2.5c-.3 0 .5 1.1 1.8 2.5m29.1 70.1c0 1.1.3 1.4.6.6.3-.7.2-1.6-.1-1.9-.3-.4-.6.2-.5 1.3m-28.2 69.1c-1.3 1.6-1.2 1.7.4.4.9-.7 1.7-1.5 1.7-1.7 0-.8-.8-.3-2.1 1.3m-167.6 30c18.5.2 48.9.2 67.5 0 18.5-.1 3.3-.2-33.8-.2s-52.3.1-33.7.2"/><path fill="#BFBFBF" fill-opacity=".8" d="M283 76.4c0 .2.8 1 1.8 1.7 1.5 1.3 1.6 1.2.3-.4s-2.1-2.1-2.1-1.3m8 8c0 .2.8 1 1.8 1.7 1.5 1.3 1.6 1.2.3-.4s-2.1-2.1-2.1-1.3m-7.1 141.3c-1.3 1.6-1.2 1.7.4.4s2.1-2.1 1.3-2.1c-.2 0-1 .8-1.7 1.7m-61.1 25c.7.3 1.6.2 1.9-.1.4-.3-.2-.6-1.3-.5-1.1 0-1.4.3-.6.6"/><path fill="#BFBFBF" fill-opacity=".7" d="M226.8 250.7c.7.3 1.6.2 1.9-.1.4-.3-.2-.6-1.3-.5-1.1 0-1.4.3-.6.6"/><g fill="#BFBFBF" stroke-width="0"><path d="M88 151.5v98.6l74.3-.3 74.2-.3 8.7-2.7c28.4-8.9 49.3-26.6 61.9-52.3 7.9-16.4 9.4-23 9.4-43s-1.5-26.6-9.4-43c-12.7-26.1-33.8-43.7-63.1-52.7-7.5-2.2-7.6-2.2-81.7-2.6L88 52.9zm138.8-82.9c8.7 1.9 22.4 8.5 30.4 14.9 12 9.5 21.9 24.5 27.3 41.5 3.3 10.5 4.4 27.9 2.6 39.5-4.3 26.4-20.2 49.5-42.1 60.9-12.7 6.7-18.8 8.1-35 8.1-12.5 0-15.5-.3-21.4-2.3-27.2-9.1-46.1-29.7-54.2-59.2-2.8-10.2-2.6-33.9.4-44.5 6.7-23.5 21.4-42.1 41.1-52.4 16.5-8.5 31.6-10.5 50.9-6.5"/><path d="M202.5 74.6c-1.1.2-4.5.9-7.5 1.5s-9.7 3.1-14.9 5.6c-16.4 7.9-30.4 24.1-36.5 42.4-8.7 26.2-4.5 52.9 12 74.8 25.9 34.5 76.5 36.6 105.4 4.4 28.5-31.8 26.1-81.8-5.2-110.8-7.6-7-19.1-13.4-28.8-16-5.7-1.6-21-2.7-24.5-1.9m51.3 51c1.5 1 2.2 2.5 2.2 4.8 0 3.9-1.5 5.6-5.1 5.6-7.9 0-7.7-10.7.1-11.9.3-.1 1.6.6 2.8 1.5m-19 .6c2 2 1.5 7.6-.7 8.8-6.1 3.2-12.3-3.7-7.5-8.4 1.8-1.9 6.5-2.1 8.2-.4m-43.2 2.9c1.2 1.3 3.5 8.4 6 18.2l4.1 16.2 4.2-17.8 4.3-17.7h4.9c2.7 0 4.9.3 4.9.7-.1 3.5-11.4 43.3-12.8 45.3-1.2 1.5-3.1 2.6-4.9 2.8-4.7.5-6.6-3-10.3-18-1.8-7.3-3.6-13.9-4-14.6-.3-.7-2.3 5.1-4.3 13-4 15.4-5.9 19.1-10.1 19.6-3.7.5-6.2-2-8-7.7-1.3-4.1-10.6-39.8-10.6-40.7 0-.2 2.2-.4 5-.4 4.3 0 5 .3 5.5 2.2 6.9 29.6 7.7 32.2 8.5 30.6.4-.7 2.2-7.6 4-15.3 2.5-10.2 4-14.6 5.6-16.2 2.9-2.9 5.5-2.9 8-.2m43.9 30.4v17l-4.7.3-4.8.3v-35.2l4.8.3 4.7.3zm20 0v17l-4.7.3-4.8.3v-35.2l4.8.3 4.7.3zM261 174c0 1.1-.2 2-.4 2s-.6-.9-.9-2-.1-2 .4-2 .9.9.9 2m3-.6c0 .8-.4 1.8-1 2.1-.5.3-1-.3-1-1.4 0-1.2.5-2.1 1-2.1.6 0 1 .6 1 1.4m1 2.3c-1.1 1.7-1.1 1.7-.6 0 .3-1 .6-2.4.7-3 0-.9.2-.9.5 0 .3.7 0 2-.6 3"/></g><path fill="#BFBFBF" fill-opacity=".5" d="M287 79.4c0 .2.8 1 1.8 1.7 1.5 1.3 1.6 1.2.3-.4s-2.1-2.1-2.1-1.3"/><path fill="#80BFBF" d="M208.8 66.7c.6.2 1.8.2 2.5 0 .6-.3.1-.5-1.3-.5s-1.9.2-1.2.5M195.5 68c-1.8.5-.2.6 4 .3 3.9-.3 7.2-.7 7.4-.9.8-.7-8.4-.2-11.4.6m19.8-.3c1.5.2 3.7.2 5 0 1.2-.2 0-.4-2.8-.4-2.7 0-3.8.2-2.2.4m8.5 1c.6.2 1.8.2 2.5 0 .6-.3.1-.5-1.3-.5s-1.9.2-1.2.5M187.5 70c-1.3.5-1.4.9-.5.9.8 0 2.4-.4 3.5-.9 1.3-.5 1.4-.9.5-.9-.8 0-2.4.4-3.5.9m41.3-.3c.7.3 1.6.2 1.9-.1.4-.3-.2-.6-1.3-.5-1.1 0-1.4.3-.6.6M182 72c-.8.5-1 1-.5 1 .6 0 1.7-.5 2.5-1s1.1-1 .5-1c-.5 0-1.7.5-2.5 1m54 0c.8.5 2 1 2.5 1 .6 0 .3-.5-.5-1s-1.9-1-2.5-1c-.5 0-.3.5.5 1m-27.7 1.7c.9.2 2.5.2 3.5 0 .9-.3.1-.5-1.8-.5s-2.7.2-1.7.5m-9 1c.9.2 2.5.2 3.5 0 .9-.3.1-.5-1.8-.5s-2.7.2-1.7.5m18 0c.9.2 2.5.2 3.5 0 .9-.3.1-.5-1.8-.5s-2.7.2-1.7.5M191.5 76c-2.5 1.1.1 1.1 3.5 0 2-.6 2.1-.8.5-.8-1.1 0-2.9.3-4 .8m33.5 0c3.4 1.1 6 1.1 3.5 0-1.1-.5-2.9-.8-4-.8-1.6 0-1.5.2.5.8m-56.6 3.4c-2.8 1.9-7.5 5.8-10.5 8.6l-5.4 5.2 5.5-4.7c3-2.6 7.9-6.4 10.8-8.3 4.5-3 5.9-4.2 4.9-4.2-.1 0-2.5 1.5-5.3 3.4m77.6-3c0 .3.9 1 2 1.6s2 .8 2 .6c0-.3-.9-1-2-1.6s-2-.8-2-.6M181.3 80c-3.5 1.6-6.3 3.1-6.3 3.4 0 .4 12.8-5.1 13.9-6.1 1.5-1.2-2.3.1-7.6 2.7m49.7-2.8c.9.9 14 6.7 14 6.3 0-.6-8.9-5.1-12-6-1.4-.4-2.3-.5-2-.3m24 5c.8.8 4.2 3.9 7.5 6.9 3.9 3.5 4.8 4 2.5 1.5-1.9-2.1-5.3-5.2-7.5-6.9s-3.3-2.4-2.5-1.5m-86.1 5.5c-1.3 1.6-1.2 1.7.4.4.9-.7 1.7-1.5 1.7-1.7 0-.8-.8-.3-2.1 1.3m80.1-1.3c0 .2.8 1 1.8 1.7 1.5 1.3 1.6 1.2.3-.4s-2.1-2.1-2.1-1.3m-87.5 7.8-5 5.3 5.3-5c2.8-2.7 5.2-5.1 5.2-5.2 0-.8-.9.1-5.5 4.9m96.5.3c3 3 5.7 5.5 5.9 5.5.3 0-1.9-2.5-4.9-5.5s-5.7-5.5-5.9-5.5c-.3 0 1.9 2.5 4.9 5.5m-107.6 1.7-1.9 2.3 2.3-1.9c1.2-1.1 2.2-2.1 2.2-2.3 0-.8-.8-.2-2.6 1.9m119.1.8c1 1.1 2 2 2.3 2s-.3-.9-1.3-2-2-2-2.3-2 .3.9 1.3 2m-115.6 5.7c-1.3 1.6-1.2 1.7.4.4.9-.7 1.7-1.5 1.7-1.7 0-.8-.8-.3-2.1 1.3m110.1-1.3c0 .2.8 1 1.8 1.7 1.5 1.3 1.6 1.2.3-.4s-2.1-2.1-2.1-1.3m11 3.6c.6 1.1 1.3 2 1.6 2 .2 0 0-.9-.6-2s-1.3-2-1.6-2c-.2 0 0 .9.6 2m-132 2c-.6 1.1-.8 2-.6 2 .3 0 1-.9 1.6-2s.8-2 .6-2c-.3 0-1 .9-1.6 2m143.1 26.6c0 1.1.3 1.4.6.6.3-.7.2-1.6-.1-1.9-.3-.4-.6.2-.5 1.3m-153 1c0 1.1.3 1.4.6.6.3-.7.2-1.6-.1-1.9-.3-.4-.6.2-.5 1.3m147 5c0 1.1.3 1.4.6.6.3-.7.2-1.6-.1-1.9-.3-.4-.6.2-.5 1.3m-141 1c0 1.1.3 1.4.6.6.3-.7.2-1.6-.1-1.9-.3-.4-.6.2-.5 1.3m148.1.4c0 1.4.2 1.9.5 1.2.2-.6.2-1.8 0-2.5-.3-.6-.5-.1-.5 1.3m-155 2c0 1.9.2 2.7.5 1.7.2-.9.2-2.5 0-3.5-.3-.9-.5-.1-.5 1.8m0 15c0 1.9.2 2.7.5 1.7.2-.9.2-2.5 0-3.5-.3-.9-.5-.1-.5 1.8m155 2c0 1.4.2 1.9.5 1.2.2-.6.2-1.8 0-2.5-.3-.6-.5-.1-.5 1.3m-148.1.6c0 1.1.3 1.4.6.6.3-.7.2-1.6-.1-1.9-.3-.4-.6.2-.5 1.3m141 1c0 1.1.3 1.4.6.6.3-.7.2-1.6-.1-1.9-.3-.4-.6.2-.5 1.3m-147 5c0 1.1.3 1.4.6.6.3-.7.2-1.6-.1-1.9-.3-.4-.6.2-.5 1.3m152 5c0 1.1.3 1.4.6.6.3-.7.2-1.6-.1-1.9-.3-.4-.6.2-.5 1.3M147 186.9c0 .6.4 1.3 1 1.6s.7-.1.4-.9c-.7-1.8-1.4-2.1-1.4-.7m124 2.1c-.6 1.1-.8 2-.6 2 .3 0 1-.9 1.6-2s.8-2 .6-2c-.3 0-1 .9-1.6 2m-129 3c.6 1.1 1.3 2 1.6 2 .2 0 0-.9-.6-2s-1.3-2-1.6-2c-.2 0 0 .9.6 2m122.4 7.2-1.9 2.3 2.3-1.9c1.2-1.1 2.2-2.1 2.2-2.3 0-.8-.8-.2-2.6 1.9m-108.9.8c1 1.1 2 2 2.3 2s-.3-.9-1.3-2-2-2-2.3-2 .3.9 1.3 2m116.4.7c-1.3 1.6-1.2 1.7.4.4.9-.7 1.7-1.5 1.7-1.7 0-.8-.8-.3-2.1 1.3m-15.5 7.1c-11.1 10.2-23.9 16.3-38.6 18.2l-7.3.9 7.2-.4c8.3-.4 19-3.9 27-8.7 4.8-2.8 19.7-15.7 18.3-15.7-.3 0-3.3 2.6-6.6 5.7M150.5 205c1 1.1 2 2 2.3 2s-.3-.9-1.3-2-2-2-2.3-2 .3.9 1.3 2m13.3 3.8c3.5 3.2 8.1 6.9 10.3 8.1 5.3 3 5 1.9-.3-1.2-2.4-1.4-7-4.9-10.3-7.7l-6-5.2zm104.6-3.6-1.9 2.3 2.3-1.9c2.1-1.8 2.7-2.6 1.9-2.6-.2 0-1.2 1-2.3 2.2m-7.4 7.9c-3 2.8-8.1 6.7-11.2 8.6-6.1 3.8-7.7 5.3-3 2.9 4-2 14.2-9.9 17.6-13.5 4.4-4.6 2.8-3.7-3.4 2m-107-3.8c0 .2 1.5 1.6 3.3 3.3l3.2 2.9-2.9-3.3c-2.8-3-3.6-3.7-3.6-2.9m8.5 7.7c1 1.1 2 2 2.3 2s-.3-.9-1.3-2-2-2-2.3-2 .3.9 1.3 2m5.9 4.4c2.1 1.9 12.9 7.6 14.3 7.6.4 0-2.5-1.8-6.4-3.9-4-2.1-7.9-4.2-8.6-4.7s-.4-.1.7 1m10.6-1.8c0 .7 7.1 3.6 7.6 3.1.2-.2-1.4-1.1-3.6-2-2.2-.8-4-1.3-4-1.1m14 5.5c1.4.6 5.7 1.2 9.5 1.4l7 .4-6-.8c-3.3-.4-7.6-1.1-9.5-1.4-3.1-.6-3.2-.6-1 .4m45 2.9c-.8.5-1 1-.5 1 .6 0 1.7-.5 2.5-1s1.1-1 .5-1c-.5 0-1.7.5-2.5 1m-53 2c.8.5 2.2.9 3 .9 1 0 .8-.3-.5-.9-2.7-1.2-4.3-1.2-2.5 0m47.5 0c-1.3.6-1.5.9-.5.9.8 0 2.2-.4 3-.9 1.8-1.2.2-1.2-2.5 0m-41 2c1.9.8 7.3 1.4 6.4.6-.2-.2-2.2-.6-4.4-.9-2.8-.5-3.4-.4-2 .3m33 0c-2.7.7-2.8.8-.5.8 1.4 0 3.4-.3 4.5-.8 2.5-1.1.2-1.1-4 0m-22.7 1.7c1.8.2 4.5.2 6 0s0-.4-3.3-.4-4.5.2-2.7.4m11.5 0c1.5.2 3.9.2 5.5 0 1.5-.2.2-.4-2.8-.4s-4.3.2-2.7.4"/><path fill="#40BFBF" d="M208.3 67.7c.9.2 2.5.2 3.5 0 .9-.3.1-.5-1.8-.5s-2.7.2-1.7.5m-5 6c.9.2 2.3.2 3 0 .6-.3-.1-.5-1.8-.5-1.6 0-2.2.2-1.2.5m11 0c.9.2 2.3.2 3 0 .6-.3-.1-.5-1.8-.5-1.6 0-2.2.2-1.2.5M260 87.5c1.3 1.4 2.6 2.5 2.8 2.5.3 0-.5-1.1-1.8-2.5s-2.6-2.5-2.8-2.5c-.3 0 .5 1.1 1.8 2.5m-103.5 2.7-4 4.3 4.3-4c3.9-3.6 4.7-4.5 3.9-4.5-.2 0-2.1 1.9-4.2 4.2m-24.4 57.4c0 1.1.3 1.4.6.6.3-.7.2-1.6-.1-1.9-.3-.4-.6.2-.5 1.3m149 1c0 1.1.3 1.4.6.6.3-.7.2-1.6-.1-1.9-.3-.4-.6.2-.5 1.3m0 4c0 1.1.3 1.4.6.6.3-.7.2-1.6-.1-1.9-.3-.4-.6.2-.5 1.3m-149 1c0 1.1.3 1.4.6.6.3-.7.2-1.6-.1-1.9-.3-.4-.6.2-.5 1.3m24.4 57.4c2.1 2.2 4.1 4 4.4 4s-1.3-1.8-3.4-4-4.1-4-4.4-4 1.3 1.8 3.4 4m106 .2-4 4.3 4.3-4c2.3-2.1 4.2-4 4.2-4.2 0-.8-.9 0-4.5 3.9m-54.7 16.5c1.2.2 3.2.2 4.5 0 1.2-.2.2-.4-2.3-.4s-3.5.2-2.2.4"/><path fill="#4080BF" d="M197.5 68.6C181.6 72 170 78 158.6 88.9c-17.6 16.9-25.7 36.6-25.7 62.1 0 24.5 9 45.4 26.4 61.6 9.1 8.5 16 12.7 27.4 16.8 8.3 2.9 9.6 3.1 23.3 3.1s15-.2 23.3-3.1c4.8-1.8 11.3-4.7 14.5-6.5 8.1-4.8 23-19.9 28-28.4 5.4-9.3 9.9-22.9 11.3-34.6 2.6-22.1-4.8-47.3-18.7-64-10.3-12.4-27.8-23.4-41.9-26.4-6.4-1.3-24.1-1.9-29-.9m32.6 7.7c24.2 8.2 42.1 28 49 54.2 2.9 11.2 2.9 28.9 0 40-7.3 27.6-27.5 48.6-53.1 55.2-8.5 2.1-23.5 2.1-32-.1-48.1-12.3-70.5-72.4-43.9-117.3 7.4-12.5 22.2-25.3 35.1-30.4 14.2-5.6 31.1-6.2 44.9-1.6"/><path fill="#8080BF" d="M228.3 142.7c1.5.2 3.7.2 5 0 1.2-.2 0-.4-2.8-.4-2.7 0-3.8.2-2.2.4"/><path fill="gray" d="M226.6 126.6c-3.4 3.3-.7 9.4 4.2 9.4 4.3 0 7.1-6.7 4-9.8-1.7-1.7-6.4-1.5-8.2.4m20 0c-4.9 4.8 1.3 11.7 7.5 8.4 2.2-1.2 2.7-6.8.7-8.8-1.7-1.7-6.4-1.5-8.2.4m-62.5 2.2c-1.7 1.3-3.2 5.6-6.2 17.7-2.2 8.8-4.2 16.1-4.3 16.2-.1.2-1.9-6.8-4-15.5-2.1-8.6-4-16.5-4.3-17.5-.3-1.3-1.5-1.7-5.5-1.7-4.7 0-5 .1-4.4 2.2.3 1.3 2.7 10.4 5.2 20.3s5.2 19.4 5.9 21.2c2.4 5.7 8.8 6.8 12 2 .8-1.2 3.1-8.5 5-16.2 2-7.7 3.8-14.1 4-14.3.4-.4.9 1.5 5 17.8 1.5 5.8 3.3 11.5 4.1 12.7 3.1 4.9 9.9 3.5 12.2-2.4 1-2.5 11.2-41.5 11.2-42.8 0-.3-2.2-.5-4.9-.5h-4.9l-4.2 17.7c-2.4 9.8-4.5 17.3-4.6 16.8-.2-.6-2.1-8-4.3-16.5-3-11.6-4.5-15.9-6.1-17.2-2.8-2.3-4.2-2.3-6.9 0m61.9 30.7v17.6l4.8-.3 4.7-.3v-34l-4.7-.3-4.8-.3zm-20 .6v17l4.8-.3 4.7-.3.3-16.8.2-16.7h-10zm34.2 13.9c0 1.4.2 1.9.5 1.2.2-.6.2-1.8 0-2.5-.3-.6-.5-.1-.5 1.3m1.8-.3c0 2.6 3.4 2.5 3.6-.1q.3-2.1-.3 0c-.4 1.4-.6 1.3-1.9-.3-1.3-1.7-1.3-1.7-1.4.4"/></svg>