<svg xmlns="http://www.w3.org/2000/svg" version="1.0" viewBox="0 0 408 305"><path fill="#BFBFBF" fill-opacity=".7" d="M94.9 86.7c-1.3 1.6-1.2 1.7.4.4.9-.7 1.7-1.5 1.7-1.7 0-.8-.8-.3-2.1 1.3M93 216.4c0 .2.8 1 1.8 1.7 1.5 1.3 1.6 1.2.3-.4s-2.1-2.1-2.1-1.3"/><path fill="#BFBFBF" fill-opacity=".8" d="m98.4 83.2-1.9 2.3 2.3-1.9c2.1-1.8 2.7-2.6 1.9-2.6-.2 0-1.2 1-2.3 2.2M98 221.5c1.3 1.4 2.6 2.5 2.8 2.5.3 0-.5-1.1-1.8-2.5s-2.6-2.5-2.8-2.5c-.3 0 .5 1.1 1.8 2.5m73.8 31.2c.7.3 1.6.2 1.9-.1.4-.3-.2-.6-1.3-.5-1.1 0-1.4.3-.6.6"/><path fill="#BFBFBF" fill-opacity=".9" d="m245.3 52.7 68.7.3v199l-68.7.3-68.8.2 69.3.3 69.2.2V52l-69.2.2-69.3.3zM69.1 152.6c0 1.1.3 1.4.6.6.3-.7.2-1.6-.1-1.9-.3-.4-.6.2-.5 1.3m35.9 74.8c0 .2.8 1 1.8 1.7 1.5 1.3 1.6 1.2.3-.4s-2.1-2.1-2.1-1.3"/><g fill="#BFBFBF" stroke-width="0"><path d="M159 53.7c-42.1 6.6-74.7 35-86.6 75.3-2.7 9.4-2.7 37.6 0 47 10.8 36.8 36.9 62.1 75.6 73.2 7.4 2.2 9 2.2 86.8 2.5l79.2.4V53l-76.2.1c-42 .1-77.4.3-78.8.6M204.5 72c2.8.7 10.1 3.7 16.4 6.7 10.2 4.9 12.4 6.4 20.6 14.6q25.35 25.35 25.5 59.7c0 29.5-13.6 55.1-37.8 71.1-13.7 9-28.1 13.2-45.7 13.1-13.6 0-22.8-2.3-36.2-8.8-21.9-10.8-36.7-29.1-43.4-53.9-3.1-11.3-3.1-30.7 0-42 7.9-29.3 28.5-50.9 56.7-59.5 12.4-3.7 30.8-4.1 43.9-1"/><path d="M170.1 78.1c-36 7.1-61.2 38.1-61.2 75.4 0 18.7 5.4 34.2 17 48.8 27.9 35.2 82.1 37.2 112.8 4.3 28-29.9 28.2-74.9.6-105.6-9.2-10.2-24.9-19.2-39-22.4-7.7-1.7-22.8-2-30.2-.5m65.4 35.5c1.9.9 3.5 2 3.5 2.5 0 .9-24.7 22.7-35.9 31.7-8.5 6.8-16.6 12.2-18.3 12.2-3.3 0-29.5-20.5-48.1-37.6-7.2-6.6-7.3-7.6-1-9.3 1.5-.4 23.9-.8 49.6-1 41.6-.1 47.2 0 50.2 1.5m-75.4 37c13.5 10.8 20.8 15.4 24.6 15.4 5.4 0 19.4-10.3 45.5-33.6 6.4-5.7 11.9-10.4 12.3-10.4.3 0 .5 14.2.5 31.6 0 29.7-.1 31.9-2 34.8-3.8 6.2-2.5 6.1-56.4 6.1-54.7 0-52.3.3-56.6-6.8-1.9-3-2-5.2-2-33.8 0-16.8.3-30.8.6-31.2.3-.3 5.9 4.1 12.3 9.9 6.4 5.7 16 13.8 21.2 18"/></g><path fill="#80BFBF" d="M172.8 70.7c.7.3 1.6.2 1.9-.1.4-.3-.2-.6-1.3-.5-1.1 0-1.4.3-.6.6m21 0c.6.2 1.8.2 2.5 0 .6-.3.1-.5-1.3-.5s-1.9.2-1.2.5m-27 1c.7.3 1.6.2 1.9-.1.4-.3-.2-.6-1.3-.5-1.1 0-1.4.3-.6.6m14.5 5c1.5.2 3.9.2 5.5 0 1.5-.2.2-.4-2.8-.4s-4.3.2-2.7.4m-9.5 1c.7.3 1.6.2 1.9-.1.4-.3-.2-.6-1.3-.5-1.1 0-1.4.3-.6.6m59.2 6.7c0 .2.8 1 1.8 1.7 1.5 1.3 1.6 1.2.3-.4s-2.1-2.1-2.1-1.3m-97.1 2.3c-1.3 1.6-1.2 1.7.4.4.9-.7 1.7-1.5 1.7-1.7 0-.8-.8-.3-2.1 1.3M241.5 94c3.8 3.8 7.2 7 7.4 7 .3 0-2.6-3.2-6.4-7-3.8-3.9-7.2-7-7.4-7-.3 0 2.6 3.1 6.4 7m-116 .2-6 6.3 6.3-6c5.8-5.5 6.7-6.5 5.9-6.5-.1 0-2.9 2.8-6.2 6.2m-7.6 8.5c-1.3 1.6-1.2 1.7.4.4.9-.7 1.7-1.5 1.7-1.7 0-.8-.8-.3-2.1 1.3m8 1c-1.3 1.6-1.2 1.7.4.4.9-.7 1.7-1.5 1.7-1.7 0-.8-.8-.3-2.1 1.3m123.1-1.3c0 .2.8 1 1.8 1.7 1.5 1.3 1.6 1.2.3-.4s-2.1-2.1-2.1-1.3m-7 2c0 .2.8 1 1.8 1.7 1.5 1.3 1.6 1.2.3-.4s-2.1-2.1-2.1-1.3m23.1 34.2c0 1.1.3 1.4.6.6.3-.7.2-1.6-.1-1.9-.3-.4-.6.2-.5 1.3m-156 1c0 1.1.3 1.4.6.6.3-.7.2-1.6-.1-1.9-.3-.4-.6.2-.5 1.3m-7 1c0 1.1.3 1.4.6.6.3-.7.2-1.6-.1-1.9-.3-.4-.6.2-.5 1.3m157 3c0 1.1.3 1.4.6.6.3-.7.2-1.6-.1-1.9-.3-.4-.6.2-.5 1.3m7.1 2.4c0 1.9.2 2.7.5 1.7.2-.9.2-2.5 0-3.5-.3-.9-.5-.1-.5 1.8m-157.9 1.5c0 2.2.2 3 .4 1.7.2-1.2.2-3 0-4-.3-.9-.5.1-.4 2.3m-7 6c0 4.4.2 6.1.4 3.7.2-2.3.2-5.9 0-8-.2-2-.4-.1-.4 4.3m7 6c0 2.2.2 3 .4 1.7.2-1.2.2-3 0-4-.3-.9-.5.1-.4 2.3m157.9 2c0 1.6.2 2.2.5 1.2.2-.9.2-2.3 0-3-.3-.6-.5.1-.5 1.8m-7.1 2.1c0 1.1.3 1.4.6.6.3-.7.2-1.6-.1-1.9-.3-.4-.6.2-.5 1.3m-157 3c0 1.1.3 1.4.6.6.3-.7.2-1.6-.1-1.9-.3-.4-.6.2-.5 1.3m7 1c0 1.1.3 1.4.6.6.3-.7.2-1.6-.1-1.9-.3-.4-.6.2-.5 1.3m156.1 1.4c0 1.4.2 1.9.5 1.2.2-.6.2-1.8 0-2.5-.3-.6-.5-.1-.5 1.3m-7.1.6c0 1.1.3 1.4.6.6.3-.7.2-1.6-.1-1.9-.3-.4-.6.2-.5 1.3M125.5 203c1 1.1 2 2 2.3 2s-.3-.9-1.3-2-2-2-2.3-2 .3.9 1.3 2m125.4-.3c-1.3 1.6-1.2 1.7.4.4s2.1-2.1 1.3-2.1c-.2 0-1 .8-1.7 1.7m-4.5 5.5-2.9 3.3 3.3-2.9c3-2.8 3.7-3.6 2.9-3.6-.2 0-1.6 1.5-3.3 3.2M125.5 213c3.8 3.8 7.2 7 7.4 7 .3 0-2.6-3.2-6.4-7-3.8-3.9-7.2-7-7.4-7-.3 0 2.6 3.1 6.4 7m111.4-4.3-2.4 2.8 2.8-2.4c2.5-2.3 3.2-3.1 2.4-3.1-.2 0-1.4 1.2-2.8 2.7M135 212.4c0 .2.8 1 1.8 1.7 1.5 1.3 1.6 1.2.3-.4s-2.1-2.1-2.1-1.3m106.9 1.3c-1.3 1.6-1.2 1.7.4.4s2.1-2.1 1.3-2.1c-.2 0-1 .8-1.7 1.7m-5.5 4.5-2.9 3.3 3.3-2.9c3-2.8 3.7-3.6 2.9-3.6-.2 0-1.6 1.5-3.3 3.2M134 220.4c0 .2.8 1 1.8 1.7 1.5 1.3 1.6 1.2.3-.4s-2.1-2.1-2.1-1.3m36.8 9.3c.7.3 1.6.2 1.9-.1.4-.3-.2-.6-1.3-.5-1.1 0-1.4.3-.6.6m25 0c.7.3 1.6.2 1.9-.1.4-.3-.2-.6-1.3-.5-1.1 0-1.4.3-.6.6m-15.5 1c2 .2 5.4.2 7.5 0 2-.2.3-.4-3.8-.4s-5.8.2-3.7.4m20.5 5c.7.3 1.6.2 1.9-.1.4-.3-.2-.6-1.3-.5-1.1 0-1.4.3-.6.6m-29 1c.7.3 1.6.2 1.9-.1.4-.3-.2-.6-1.3-.5-1.1 0-1.4.3-.6.6m23 0c.7.3 1.6.2 1.9-.1.4-.3-.2-.6-1.3-.5-1.1 0-1.4.3-.6.6m-12.5 1c.9.2 2.5.2 3.5 0 .9-.3.1-.5-1.8-.5s-2.7.2-1.7.5"/><path fill="#40BFBF" d="M176.8 76.7c.7.3 1.6.2 1.9-.1.4-.3-.2-.6-1.3-.5-1.1 0-1.4.3-.6.6m13 0c.7.3 1.6.2 1.9-.1.4-.3-.2-.6-1.3-.5-1.1 0-1.4.3-.6.6m76.3 80.9c0 1.1.3 1.4.6.6.3-.7.2-1.6-.1-1.9-.3-.4-.6.2-.5 1.3"/><path fill="#4080BF" d="M171.7 71c-17.7 3.2-31.6 10.1-44.1 21.9-10.5 10-17.2 20.9-22.2 36.1-2.5 7.7-2.8 9.9-2.8 23.5-.1 16.1.7 21.1 5.5 32.8 4.6 11.3 8.9 17.7 18.9 27.8 8.4 8.4 10.7 10.1 20 14.7 12.6 6.1 19.4 8 32 8.8 58.5 3.8 101.4-52.8 83.1-109.6-4.2-13.2-9.8-21.9-21.1-33.1-8.6-8.6-10.8-10.3-20.1-14.7-5.7-2.8-13.3-5.8-16.9-6.7-7.7-1.9-25.6-2.8-32.3-1.5m26.2 6.5c29.2 5.6 52.7 27.9 60.1 57 2.8 10.9 2.8 27.1.1 38-5.6 22-20.5 40.4-40.6 50.4-12.3 6.1-18.9 7.6-34 7.5-11.3-.1-14.1-.4-21-2.7-25-8.3-42.7-26-51.2-51.2-2.5-7.3-2.7-9.4-2.7-23s.2-15.7 2.7-23c12.8-38 48.9-60.1 86.6-53"/><g fill="gray" stroke-width="0"><path d="M135.6 113.1c-6.2 1.7-6.1 2.7 1.1 9.3 18.5 17 44.8 37.6 48.1 37.6 1.6 0 10.5-6 19.2-13 9.9-7.9 35-30 35-30.8 0-.4-1-1.4-2.2-2.2-2-1.3-9.5-1.5-50.3-1.6-26.5 0-49.3.3-50.9.7"/><path d="M126.6 122.7c-.3.4-.6 14.1-.6 30.5 0 32.4.3 34.5 5.5 38.6 2.8 2.2 3 2.2 52.9 2.2 54.2-.1 53 0 56.7-5.6 1.8-2.7 1.9-5 1.9-34.7 0-17.4-.2-31.7-.5-31.7s-5.6 4.5-11.8 10.1c-14.3 12.9-32.9 27.8-38.8 31.2-5.9 3.5-9 3.4-15.3-.4-6.6-4.1-25.1-19-38.8-31.2-5.8-5.3-10.9-9.3-11.2-9"/></g><path fill="#8080BF" d="M161.3 194.7c13 .2 34.4.2 47.5 0 13-.1 2.3-.2-23.8-.2s-36.8.1-23.7.2"/></svg>